<svg xmlns="http://www.w3.org/2000/svg" viewBox="0 0 458.34 57.7"><defs><style>.cls-1{fill:#fff;}</style></defs><title>Asset 2</title><g id="Layer_2" data-name="Layer 2"><g id="Layer_1-2" data-name="Layer 1"><path class="cls-1" d="M161.86,42.76l-.11.15,9.3,11h7.36v-2h-2.89l-10.1-12A16.41,16.41,0,0,0,161.86,42.76Z"/><path class="cls-1" d="M30.92,52.31a30.06,30.06,0,0,1-11.45,2.29C8.23,54.61,0,46.75,0,36A18.54,18.54,0,0,1,18.87,17.25a21.09,21.09,0,0,1,9.43,2V16.82h2.56v9.27H28.3V23.42C25,21,22.52,20,19,20,11,20,5.4,26.47,5.4,35.68c0,9.05,6.32,16.09,14.45,16.09,2.73,0,5-.71,8.45-2.73v-4h2.62Z"/><path class="cls-1" d="M66,53.9H41.15v-2h4.09v-32H41.15v-2h13v2H50V51.44H63.46v-4.8H66Z"/><path class="cls-1" d="M99.28,53.9H74.47v-2h4.09v-32H74.47v-2H96.22V16.38h2.51v8.67H96.28V20.42H83.36v14H93.66V30.29l2.51-.05V41L93.66,41v-4.2H83.36V51.44H96.77v-4.8h2.51Z"/><path class="cls-1" d="M139.29,53.9h-4.63c-3.22,0-3.82-.33-5.62-3.22l-8.12-12.92h-4.25V51.88h4.09v2h-13v-2h4.09v-32h-4.09v-2h15.16c5.29,0,8.29,1.47,9.92,4.85a11.11,11.11,0,0,1,1.09,4.85c0,5.29-2.94,8.67-8.18,9.43l7.85,12.11c1.31,2,2.18,2.67,3.54,2.67h2.13ZM116.66,35.25h5.24c4.14,0,7-3.05,7-7.52,0-4.69-2.56-7.31-7.14-7.31h-5.13Z"/><path class="cls-1" d="M222.93,18.85h-1.22v6.22a3.68,3.68,0,0,1-2,3.61,4.91,4.91,0,0,1-2.27.55,3.81,3.81,0,0,1-4.12-3.71V18.85h-1.22v-.61H216v.61h-1.22V25c0,2,1.16,3.27,3,3.27A3,3,0,0,0,220.87,25V18.85h-1.22v-.61h3.28Z"/><path class="cls-1" d="M237.2,29.2h-.51l-6.27-8.62v7.84h1.24V29h-3.3v-.6h1.24v-9l-.44-.62H228v-.61h2.37l6,8.2V18.85h-1.24v-.61h3.28v.61H237.2Z"/><path class="cls-1" d="M247.7,29h-3.89v-.6H245V18.85h-1.22v-.61h3.89v.61h-1.22v9.57h1.22Z"/><path class="cls-1" d="M259.51,29h-4.7v-.6h1.63V19.06h-3.27v1.31h-.78V17.79h.78v.46h8v-.46h.78v2.58h-.78V19.06h-3.27v9.36h1.63Z"/><path class="cls-1" d="M274,29h-7.43v-.6h1.22V18.85h-1.22v-.61h6.52v-.46h.75v2.6h-.74V19h-3.87v4.18h3.09V22l.75,0v3.22l-.75,0V23.91h-3.09v4.38h4V26.85H274Z"/><path class="cls-1" d="M279.56,29v-.6h1.22V18.85h-1.22v-.61h4.82a5.39,5.39,0,0,1,0,10.78Zm2.66-.82h2c2.24,0,3.94-2,3.92-4.57s-1.73-4.56-3.89-4.56h-2Z"/><path class="cls-1" d="M303.75,29.17H303V26.23h.77v1.29a3.41,3.41,0,0,0,2.16.83c1.31,0,2.19-.69,2.19-1.71s-.64-1.62-2.4-2.53c-2.06-1.08-2.76-1.89-2.76-3.23A3,3,0,0,1,306.15,18a3.64,3.64,0,0,1,1.94.46v-.59h.75v2.79h-.75V19.55a3,3,0,0,0-1.89-.72,1.65,1.65,0,0,0-1.83,1.68c0,.83.47,1.31,2.51,2.48s2.63,1.89,2.63,3.23a3.08,3.08,0,0,1-3.25,3,4.19,4.19,0,0,1-2.51-.73Z"/><path class="cls-1" d="M321.45,29h-4.7v-.6h1.63V19.06h-3.27v1.31h-.78V17.79h.78v.46h8v-.46h.79v2.58h-.79V19.06h-3.27v9.36h1.63Z"/><path class="cls-1" d="M338.29,29h-3.72v-.6h1.31l-1.14-2.94-4.18,0-1.19,2.94h1.35V29h-3.12V28.4h.85l4.25-10.5h.59l4.08,10.5h.93Zm-3.84-4.33-1.75-4.59-1.85,4.59Z"/><path class="cls-1" d="M349.14,29h-4.7v-.6h1.63V19.06H342.8v1.31H342V17.79h.78v.46h8v-.46h.78v2.58h-.78V19.06h-3.27v9.36h1.63Z"/><path class="cls-1" d="M363.68,29h-7.43v-.6h1.22V18.85h-1.22v-.61h6.52v-.46h.75v2.6h-.74V19h-3.87v4.18H362V22l.75,0v3.22l-.75,0V23.91h-3.09v4.38h4V26.85h.75Z"/><path class="cls-1" d="M370.29,29.17h-.77V26.23h.77v1.29a3.41,3.41,0,0,0,2.16.83c1.31,0,2.19-.69,2.19-1.71s-.64-1.62-2.4-2.53c-2.06-1.08-2.76-1.89-2.76-3.23A3,3,0,0,1,372.69,18a3.64,3.64,0,0,1,1.94.46v-.59h.75v2.79h-.75V19.55a3,3,0,0,0-1.89-.72,1.65,1.65,0,0,0-1.83,1.68c0,.83.47,1.31,2.51,2.48s2.63,1.89,2.63,3.23a3.08,3.08,0,0,1-3.25,3,4.19,4.19,0,0,1-2.52-.73Z"/><path class="cls-1" d="M400.83,29h-3.89v-.6h1.22V23.93H392v4.49h1.22V29h-3.89v-.6h1.22V18.85h-1.22v-.61h3.89v.61H392v4.34h6.12V18.85h-1.22v-.61h3.89v.61h-1.24v9.57h1.24Z"/><path class="cls-1" d="M406.2,23.65a5.26,5.26,0,1,1,5.28,5.59A5.48,5.48,0,0,1,406.2,23.65Zm1.62,0c0,2.76,1.54,4.75,3.66,4.75s3.61-2,3.61-4.75-1.52-4.74-3.59-4.74S407.81,20.86,407.81,23.63Z"/><path class="cls-1" d="M432.88,18.85h-1.22v6.22a3.68,3.68,0,0,1-2,3.61,4.91,4.91,0,0,1-2.27.55,3.81,3.81,0,0,1-4.12-3.71V18.85h-1.22v-.61H426v.61h-1.22V25c0,2,1.16,3.27,3,3.27A3,3,0,0,0,430.82,25V18.85H429.6v-.61h3.28Z"/><path class="cls-1" d="M439.36,29.17h-.77V26.23h.77v1.29a3.41,3.41,0,0,0,2.16.83c1.31,0,2.19-.69,2.19-1.71s-.64-1.62-2.4-2.53c-2.06-1.08-2.76-1.89-2.76-3.23A3,3,0,0,1,441.77,18a3.64,3.64,0,0,1,1.94.46v-.59h.75v2.79h-.75V19.55a3,3,0,0,0-1.89-.72A1.65,1.65,0,0,0,440,20.51c0,.83.47,1.31,2.52,2.48s2.63,1.89,2.63,3.23a3.08,3.08,0,0,1-3.25,3,4.19,4.19,0,0,1-2.52-.73Z"/><path class="cls-1" d="M458.34,29h-7.43v-.6h1.23V18.85h-1.23v-.61h6.52v-.46h.75v2.6h-.73V19h-3.87v4.18h3.09V22l.75,0v3.22l-.75,0V23.91h-3.09v4.38h4V26.85h.75Z"/><path class="cls-1" d="M215.71,45.92c1.4,0,2.4,1.32,2.4,3.18a5.32,5.32,0,0,1-1.54,3.48,3.26,3.26,0,0,1-2.32,1.13c-1.37,0-2.37-1.27-2.37-3a5.36,5.36,0,0,1,1.5-3.66A3.3,3.3,0,0,1,215.71,45.92Zm-2.5,3.89c0,.2,0,.38,0,.55,0,1.49.62,2.6,1.45,2.6,1.14,0,2.21-1.81,2.21-3.77,0-1.4-.64-2.53-1.45-2.53C214.39,46.66,213.41,48.1,213.21,49.81Z"/><path class="cls-1" d="M226.78,47H225.1l-1.16,7.37c-.31,1.93-1.62,3.3-3.18,3.3a2.31,2.31,0,0,1-1.73-.75l.9-1a2.94,2.94,0,0,0,1.37,1c1-.52,1.29-1.08,1.62-3.15L224,47h-1.37v-.31l1.5-.49.36-2.11a3,3,0,0,1,1.86-2.38,3,3,0,0,1,3.3.47l-.93,1a7.7,7.7,0,0,0-1.19-1l-.26-.18c-1,.31-1.45.95-1.73,2.5l-.31,1.8h1.67Z"/><path class="cls-1" d="M247.49,53.52H246.1c-1,0-1.14-.1-1.68-1L242,48.68h-1.27v4.23h1.22v.6h-3.89v-.6h1.22V43.34h-1.22v-.6h4.54c1.58,0,2.48.44,3,1.45a3.34,3.34,0,0,1,.33,1.45,2.64,2.64,0,0,1-2.45,2.83l2.35,3.63c.39.6.65.8,1.06.8h.64Zm-6.78-5.59h1.57a2.08,2.08,0,0,0,2.11-2.25,2,2,0,0,0-2.14-2.19h-1.54Z"/><path class="cls-1" d="M259.62,53.52h-7.43v-.6h1.22V43.34h-1.22v-.6h6.52v-.46h.75v2.6h-.74V43.49h-3.87v4.18h3.09V46.45l.75,0v3.22l-.75,0V48.41h-3.09v4.38h4V51.34h.75Z"/><path class="cls-1" d="M269.18,53.52h-4v-.6h1.22V43.34h-1.22v-.6h4.67a3,3,0,0,1,3.2,3.1,3.37,3.37,0,0,1-3.58,3.25,4.08,4.08,0,0,1-.91-.1v-.57a1.56,1.56,0,0,0,.44,0,2.6,2.6,0,0,0,2.56-2.63,2.17,2.17,0,0,0-1.94-2.35H267.8v9.42h1.39Z"/><path class="cls-1" d="M287.84,53.52h-1.39c-1,0-1.14-.1-1.68-1l-2.43-3.87h-1.27v4.23h1.22v.6H278.4v-.6h1.22V43.34H278.4v-.6h4.54c1.59,0,2.48.44,3,1.45a3.32,3.32,0,0,1,.33,1.45,2.64,2.64,0,0,1-2.45,2.83l2.35,3.63c.39.6.65.8,1.06.8h.64Zm-6.78-5.59h1.57a2.08,2.08,0,0,0,2.11-2.25,2,2,0,0,0-2.14-2.19h-1.54Z"/><path class="cls-1" d="M300,53.52h-7.43v-.6h1.22V43.34h-1.22v-.6h6.52v-.46h.75v2.6h-.74V43.49h-3.87v4.18h3.09V46.45l.75,0v3.22l-.75,0V48.41h-3.09v4.38h4V51.34H300Z"/><path class="cls-1" d="M306.59,53.67h-.77V50.72h.77V52a3.41,3.41,0,0,0,2.16.83c1.31,0,2.19-.69,2.19-1.71s-.64-1.62-2.4-2.53c-2.06-1.08-2.76-1.89-2.76-3.23A3,3,0,0,1,309,42.54a3.64,3.64,0,0,1,1.94.46v-.59h.75V45.2h-.75V44a3,3,0,0,0-1.89-.72A1.65,1.65,0,0,0,307.21,45c0,.83.47,1.31,2.51,2.48s2.63,1.89,2.63,3.23a3.08,3.08,0,0,1-3.25,3,4.18,4.18,0,0,1-2.52-.74Z"/><path class="cls-1" d="M325.56,53.52h-7.43v-.6h1.23V43.34h-1.23v-.6h6.52v-.46h.75v2.6h-.74V43.49h-3.87v4.18h3.09V46.45l.75,0v3.22l-.75,0V48.41h-3.09v4.38h4V51.34h.75Z"/><path class="cls-1" d="M340,53.7h-.51l-6.27-8.62v7.84h1.24v.6h-3.3v-.6h1.24V44l-.44-.62H330.8v-.6h2.37l6,8.2V43.34h-1.24v-.6h3.28v.6H340Z"/><path class="cls-1" d="M352.74,53.52H348v-.6h1.63V43.55H346.4v1.31h-.78V42.28h.78v.46h8v-.46h.78v2.58h-.78V43.55H351.1v9.36h1.63Z"/><path class="cls-1" d="M369.57,53.52h-3.72v-.6h1.31L366,50l-4.18,0-1.19,2.94H362v.62h-3.12V52.9h.85L364,42.39h.59l4.08,10.5h.93Zm-3.84-4.33L364,44.6l-1.85,4.59Z"/><path class="cls-1" d="M380.43,53.52h-4.7v-.6h1.63V43.55h-3.27v1.31h-.78V42.28h.78v.46h8v-.46h.78v2.58h-.78V43.55H378.8v9.36h1.63Z"/><path class="cls-1" d="M391.42,53.52h-3.89v-.6h1.22V43.34h-1.22v-.6h3.89v.6H390.2v9.57h1.22Z"/><path class="cls-1" d="M401.74,53.79h-.55l-4.12-10.45h-1v-.6h4.05v.6h-1.54l3.17,8,3.14-8h-1.08v-.6h2.79v.6h-.82Z"/><path class="cls-1" d="M418.76,53.52h-7.43v-.6h1.22V43.34h-1.22v-.6h6.52v-.46h.75v2.6h-.74V43.49H414v4.18h3.09V46.45l.75,0v3.22l-.75,0V48.41H414v4.38h4V51.34h.75Z"/><path class="cls-1" d="M425.37,53.67h-.77V50.72h.77V52a3.42,3.42,0,0,0,2.16.83c1.31,0,2.19-.69,2.19-1.71s-.64-1.62-2.4-2.53c-2.06-1.08-2.76-1.89-2.76-3.23a3,3,0,0,1,3.22-2.83,3.64,3.64,0,0,1,1.94.46v-.59h.75V45.2h-.75V44a3,3,0,0,0-1.89-.72A1.65,1.65,0,0,0,426,45c0,.83.47,1.31,2.51,2.48s2.63,1.89,2.63,3.23a3.08,3.08,0,0,1-3.25,3,4.18,4.18,0,0,1-2.51-.74Z"/><line class="cls-1" x1="193.81" y1="18.3" x2="193.8" y2="54.54"/><path class="cls-1" d="M167.11,18.28c-7,9.88-10.38,21.33-11.93,28.17V19.93h4.09v-2h-13v2l4.09.05V51.82h-4.09V53.9h13v-2h-4.09v-.17c.57-3,2.59-9.18,4.84-11.94,2.92-3.58,13.79-7.75,19-14.62a68.26,68.26,0,0,0-14.71,3.57c3.39-2.75,9.55-5.85,17.16-7.67a31.22,31.22,0,0,0,1.94-7.47,65,65,0,0,0-11.93,3.14,41.44,41.44,0,0,1,12.8-6.44,18.07,18.07,0,0,1,1.48-3.19c1.74-3,7-7.09,7-7.09S178.15,2.61,167.11,18.28Z"/></g></g></svg>