<?xml version="1.0" encoding="utf-8"?>
<!-- Generator: Adobe Illustrator 19.2.1, SVG Export Plug-In . SVG Version: 6.00 Build 0)  -->
<svg version="1.1" id="Layer_1" xmlns="http://www.w3.org/2000/svg" xmlns:xlink="http://www.w3.org/1999/xlink" x="0px" y="0px"
	 width="458.3px" height="57.7px" viewBox="0 0 458.3 57.7" enable-background="new 0 0 458.3 57.7" xml:space="preserve">
<g>
	<path fill="#082541" d="M161.9,42.8c0,0-0.1,0.1-0.1,0.2l9.3,11h7.4v-2h-2.9l-10.1-12C163.9,40.9,162.6,41.8,161.9,42.8z"/>
	<path fill="#082541" d="M30.9,52.3c-4.6,1.7-7.6,2.3-11.5,2.3C8.2,54.6,0,46.8,0,36c0-10.6,8.2-18.8,18.9-18.8c3.5,0,6.4,0.6,9.4,2
		v-2.5h2.6v9.3h-2.6v-2.7C25,21,22.5,20,19,20C11,20,5.4,26.5,5.4,35.7c0,9.1,6.3,16.1,14.4,16.1c2.7,0,5-0.7,8.5-2.7v-4h2.6V52.3z"
		/>
	<path fill="#082541" d="M66,53.9H41.2v-2h4.1v-32h-4.1v-2h13v2H50v31.5h13.4v-4.8H66V53.9z"/>
	<path fill="#082541" d="M99.3,53.9H74.5v-2h4.1v-32h-4.1v-2h21.8v-1.5h2.5v8.7h-2.5v-4.6H83.4v14h10.3v-4.1l2.5-0.1V41L93.7,41
		v-4.2H83.4v14.6h13.4v-4.8h2.5V53.9z"/>
	<path fill="#082541" d="M139.3,53.9h-4.6c-3.2,0-3.8-0.3-5.6-3.2l-8.1-12.9h-4.3v14.1h4.1v2h-13v-2h4.1v-32h-4.1v-2h15.2
		c5.3,0,8.3,1.5,9.9,4.9c0.7,1.5,1.1,3.1,1.1,4.9c0,5.3-2.9,8.7-8.2,9.4l7.9,12.1c1.3,2,2.2,2.7,3.5,2.7h2.1V53.9z M116.7,35.2h5.2
		c4.1,0,7-3.1,7-7.5c0-4.7-2.6-7.3-7.1-7.3h-5.1V35.2z"/>
	<g>
		<g>
			<path fill="#082541" d="M222.9,18.8h-1.2v6.2c0,1.7-0.6,2.9-2,3.6c-0.7,0.4-1.5,0.6-2.3,0.6c-2.4,0-4.1-1.6-4.1-3.7v-6.7h-1.2
				v-0.6h3.9v0.6h-1.2V25c0,2,1.2,3.3,3,3.3c1.9,0,3.1-1.3,3.1-3.3v-6.2h-1.2v-0.6h3.3V18.8z"/>
			<path fill="#082541" d="M237.2,29.2h-0.5l-6.3-8.6v7.8h1.2V29h-3.3v-0.6h1.2v-9l-0.4-0.6H228v-0.6h2.4l6,8.2v-7.6h-1.2v-0.6h3.3
				v0.6h-1.2V29.2z"/>
			<path fill="#082541" d="M247.7,29h-3.9v-0.6h1.2v-9.6h-1.2v-0.6h3.9v0.6h-1.2v9.6h1.2V29z"/>
			<path fill="#082541" d="M259.5,29h-4.7v-0.6h1.6v-9.4h-3.3v1.3h-0.8v-2.6h0.8v0.5h8v-0.5h0.8v2.6h-0.8v-1.3h-3.3v9.4h1.6V29z"/>
			<path fill="#082541" d="M274,29h-7.4v-0.6h1.2v-9.6h-1.2v-0.6h6.5v-0.5h0.8v2.6h-0.7V19h-3.9v4.2h3.1V22l0.8,0v3.2l-0.8,0v-1.3
				h-3.1v4.4h4v-1.4h0.8V29z"/>
			<path fill="#082541" d="M279.6,29v-0.6h1.2v-9.6h-1.2v-0.6h4.8c2.9,0,5.3,2.4,5.3,5.4c0,3-2.4,5.4-5.4,5.4H279.6z M282.2,28.2h2
				c2.2,0,3.9-2,3.9-4.6c0-2.5-1.7-4.6-3.9-4.6h-2V28.2z"/>
			<path fill="#082541" d="M303.7,29.2H303v-2.9h0.8v1.3c1,0.7,1.4,0.8,2.2,0.8c1.3,0,2.2-0.7,2.2-1.7c0-0.9-0.6-1.6-2.4-2.5
				c-2.1-1.1-2.8-1.9-2.8-3.2c0-1.6,1.4-2.8,3.2-2.8c0.8,0,1.4,0.1,1.9,0.5v-0.6h0.8v2.8h-0.8v-1.2c-0.8-0.6-1.2-0.7-1.9-0.7
				c-1.1,0-1.8,0.7-1.8,1.7c0,0.8,0.5,1.3,2.5,2.5c2,1.2,2.6,1.9,2.6,3.2c0,1.7-1.4,3-3.3,3c-1,0-1.7-0.2-2.5-0.7V29.2z"/>
			<path fill="#082541" d="M321.4,29h-4.7v-0.6h1.6v-9.4h-3.3v1.3h-0.8v-2.6h0.8v0.5h8v-0.5h0.8v2.6h-0.8v-1.3h-3.3v9.4h1.6V29z"/>
			<path fill="#082541" d="M338.3,29h-3.7v-0.6h1.3l-1.1-2.9l-4.2,0l-1.2,2.9h1.4V29h-3.1v-0.6h0.8l4.2-10.5h0.6l4.1,10.5h0.9V29z
				 M334.4,24.7l-1.7-4.6l-1.8,4.6H334.4z"/>
			<path fill="#082541" d="M349.1,29h-4.7v-0.6h1.6v-9.4h-3.3v1.3H342v-2.6h0.8v0.5h8v-0.5h0.8v2.6h-0.8v-1.3h-3.3v9.4h1.6V29z"/>
			<path fill="#082541" d="M363.7,29h-7.4v-0.6h1.2v-9.6h-1.2v-0.6h6.5v-0.5h0.8v2.6h-0.7V19h-3.9v4.2h3.1V22l0.8,0v3.2l-0.8,0v-1.3
				h-3.1v4.4h4v-1.4h0.8V29z"/>
			<path fill="#082541" d="M370.3,29.2h-0.8v-2.9h0.8v1.3c1,0.7,1.4,0.8,2.2,0.8c1.3,0,2.2-0.7,2.2-1.7c0-0.9-0.6-1.6-2.4-2.5
				c-2.1-1.1-2.8-1.9-2.8-3.2c0-1.6,1.4-2.8,3.2-2.8c0.8,0,1.4,0.1,1.9,0.5v-0.6h0.8v2.8h-0.8v-1.2c-0.8-0.6-1.2-0.7-1.9-0.7
				c-1.1,0-1.8,0.7-1.8,1.7c0,0.8,0.5,1.3,2.5,2.5c2,1.2,2.6,1.9,2.6,3.2c0,1.7-1.4,3-3.2,3c-1,0-1.7-0.2-2.5-0.7V29.2z"/>
			<path fill="#082541" d="M400.8,29h-3.9v-0.6h1.2v-4.5H392v4.5h1.2V29h-3.9v-0.6h1.2v-9.6h-1.2v-0.6h3.9v0.6H392v4.3h6.1v-4.3
				h-1.2v-0.6h3.9v0.6h-1.2v9.6h1.2V29z"/>
			<path fill="#082541" d="M406.2,23.6c0-3.1,2.4-5.6,5.3-5.6c2.8,0,5.2,2.5,5.2,5.6s-2.4,5.6-5.2,5.6
				C408.6,29.2,406.2,26.7,406.2,23.6z M407.8,23.6c0,2.8,1.5,4.8,3.7,4.8c2.1,0,3.6-2,3.6-4.8c0-2.7-1.5-4.7-3.6-4.7
				C409.3,18.9,407.8,20.9,407.8,23.6z"/>
			<path fill="#082541" d="M432.9,18.8h-1.2v6.2c0,1.7-0.6,2.9-2,3.6c-0.7,0.4-1.5,0.6-2.3,0.6c-2.4,0-4.1-1.6-4.1-3.7v-6.7h-1.2
				v-0.6h3.9v0.6h-1.2V25c0,2,1.2,3.3,3,3.3c1.9,0,3.1-1.3,3.1-3.3v-6.2h-1.2v-0.6h3.3V18.8z"/>
			<path fill="#082541" d="M439.4,29.2h-0.8v-2.9h0.8v1.3c1,0.7,1.4,0.8,2.2,0.8c1.3,0,2.2-0.7,2.2-1.7c0-0.9-0.6-1.6-2.4-2.5
				c-2.1-1.1-2.8-1.9-2.8-3.2c0-1.6,1.4-2.8,3.2-2.8c0.8,0,1.4,0.1,1.9,0.5v-0.6h0.8v2.8h-0.8v-1.2c-0.8-0.6-1.2-0.7-1.9-0.7
				c-1.1,0-1.8,0.7-1.8,1.7c0,0.8,0.5,1.3,2.5,2.5c2,1.2,2.6,1.9,2.6,3.2c0,1.7-1.4,3-3.2,3c-1,0-1.7-0.2-2.5-0.7V29.2z"/>
			<path fill="#082541" d="M458.3,29h-7.4v-0.6h1.2v-9.6h-1.2v-0.6h6.5v-0.5h0.8v2.6h-0.7V19h-3.9v4.2h3.1V22l0.8,0v3.2l-0.8,0v-1.3
				h-3.1v4.4h4v-1.4h0.8V29z"/>
			<path fill="#082541" d="M215.7,45.9c1.4,0,2.4,1.3,2.4,3.2c0,1.2-0.6,2.4-1.5,3.5c-0.7,0.7-1.5,1.1-2.3,1.1c-1.4,0-2.4-1.3-2.4-3
				c0-1.3,0.5-2.6,1.5-3.7C214.1,46.3,214.9,45.9,215.7,45.9z M213.2,49.8c0,0.2,0,0.4,0,0.6c0,1.5,0.6,2.6,1.5,2.6
				c1.1,0,2.2-1.8,2.2-3.8c0-1.4-0.6-2.5-1.5-2.5C214.4,46.7,213.4,48.1,213.2,49.8z"/>
			<path fill="#082541" d="M226.8,47h-1.7l-1.2,7.4c-0.3,1.9-1.6,3.3-3.2,3.3c-0.7,0-1-0.2-1.7-0.8l0.9-1c0.6,0.6,0.8,0.8,1.4,1
				c1-0.5,1.3-1.1,1.6-3.2L224,47h-1.4v-0.3l1.5-0.5l0.4-2.1c0.2-1.1,0.8-1.9,1.9-2.4c0.5-0.2,0.8-0.3,1.2-0.3
				c0.8,0,1.4,0.2,2.1,0.8l-0.9,1c-0.4-0.5-0.6-0.6-1.2-1l-0.3-0.2c-1,0.3-1.5,0.9-1.7,2.5l-0.3,1.8h1.7L226.8,47z"/>
			<path fill="#082541" d="M247.5,53.5h-1.4c-1,0-1.1-0.1-1.7-1l-2.4-3.9h-1.3v4.2h1.2v0.6h-3.9v-0.6h1.2v-9.6h-1.2v-0.6h4.5
				c1.6,0,2.5,0.4,3,1.5c0.2,0.4,0.3,0.9,0.3,1.5c0,1.6-0.9,2.6-2.4,2.8l2.4,3.6c0.4,0.6,0.7,0.8,1.1,0.8h0.6V53.5z M240.7,47.9h1.6
				c1.2,0,2.1-0.9,2.1-2.3c0-1.4-0.8-2.2-2.1-2.2h-1.5V47.9z"/>
			<path fill="#082541" d="M259.6,53.5h-7.4v-0.6h1.2v-9.6h-1.2v-0.6h6.5v-0.5h0.8v2.6h-0.7v-1.4h-3.9v4.2h3.1v-1.2l0.8,0v3.2
				l-0.8,0v-1.3h-3.1v4.4h4v-1.4h0.8V53.5z"/>
			<path fill="#082541" d="M269.2,53.5h-4v-0.6h1.2v-9.6h-1.2v-0.6h4.7c1.9,0,3.2,1.3,3.2,3.1c0,1.8-1.6,3.2-3.6,3.2
				c-0.3,0-0.5,0-0.9-0.1v-0.6c0.2,0,0.3,0,0.4,0c1.4,0,2.6-1.2,2.6-2.6c0-1.3-0.9-2.4-1.9-2.4h-1.8v9.4h1.4L269.2,53.5z"/>
			<path fill="#082541" d="M287.8,53.5h-1.4c-1,0-1.1-0.1-1.7-1l-2.4-3.9h-1.3v4.2h1.2v0.6h-3.9v-0.6h1.2v-9.6h-1.2v-0.6h4.5
				c1.6,0,2.5,0.4,3,1.5c0.2,0.4,0.3,0.9,0.3,1.5c0,1.6-0.9,2.6-2.4,2.8l2.4,3.6c0.4,0.6,0.7,0.8,1.1,0.8h0.6V53.5z M281.1,47.9h1.6
				c1.2,0,2.1-0.9,2.1-2.3c0-1.4-0.8-2.2-2.1-2.2h-1.5V47.9z"/>
			<path fill="#082541" d="M300,53.5h-7.4v-0.6h1.2v-9.6h-1.2v-0.6h6.5v-0.5h0.8v2.6h-0.7v-1.4h-3.9v4.2h3.1v-1.2l0.8,0v3.2l-0.8,0
				v-1.3h-3.1v4.4h4v-1.4h0.8V53.5z"/>
			<path fill="#082541" d="M306.6,53.7h-0.8v-2.9h0.8V52c1,0.7,1.4,0.8,2.2,0.8c1.3,0,2.2-0.7,2.2-1.7c0-0.9-0.6-1.6-2.4-2.5
				c-2.1-1.1-2.8-1.9-2.8-3.2c0-1.6,1.4-2.8,3.2-2.8c0.8,0,1.4,0.1,1.9,0.5v-0.6h0.8v2.8h-0.8V44c-0.8-0.6-1.2-0.7-1.9-0.7
				c-1.1,0-1.8,0.7-1.8,1.7c0,0.8,0.5,1.3,2.5,2.5c2,1.2,2.6,1.9,2.6,3.2c0,1.7-1.4,3-3.2,3c-1,0-1.7-0.2-2.5-0.7V53.7z"/>
			<path fill="#082541" d="M325.6,53.5h-7.4v-0.6h1.2v-9.6h-1.2v-0.6h6.5v-0.5h0.8v2.6h-0.7v-1.4h-3.9v4.2h3.1v-1.2l0.8,0v3.2
				l-0.8,0v-1.3h-3.1v4.4h4v-1.4h0.8V53.5z"/>
			<path fill="#082541" d="M340,53.7h-0.5l-6.3-8.6v7.8h1.2v0.6h-3.3v-0.6h1.2v-9l-0.4-0.6h-1.1v-0.6h2.4l6,8.2v-7.6h-1.2v-0.6h3.3
				v0.6H340V53.7z"/>
			<path fill="#082541" d="M352.7,53.5H348v-0.6h1.6v-9.4h-3.3v1.3h-0.8v-2.6h0.8v0.5h8v-0.5h0.8v2.6h-0.8v-1.3h-3.3v9.4h1.6V53.5z"
				/>
			<path fill="#082541" d="M369.6,53.5h-3.7v-0.6h1.3L366,50l-4.2,0l-1.2,2.9h1.4v0.6h-3.1v-0.6h0.8l4.2-10.5h0.6l4.1,10.5h0.9V53.5
				z M365.7,49.2l-1.7-4.6l-1.8,4.6H365.7z"/>
			<path fill="#082541" d="M380.4,53.5h-4.7v-0.6h1.6v-9.4h-3.3v1.3h-0.8v-2.6h0.8v0.5h8v-0.5h0.8v2.6h-0.8v-1.3h-3.3v9.4h1.6V53.5z
				"/>
			<path fill="#082541" d="M391.4,53.5h-3.9v-0.6h1.2v-9.6h-1.2v-0.6h3.9v0.6h-1.2v9.6h1.2V53.5z"/>
			<path fill="#082541" d="M401.7,53.8h-0.6l-4.1-10.5h-1v-0.6h4.1v0.6h-1.5l3.2,8l3.1-8h-1.1v-0.6h2.8v0.6h-0.8L401.7,53.8z"/>
			<path fill="#082541" d="M418.8,53.5h-7.4v-0.6h1.2v-9.6h-1.2v-0.6h6.5v-0.5h0.8v2.6h-0.7v-1.4H414v4.2h3.1v-1.2l0.8,0v3.2l-0.8,0
				v-1.3H414v4.4h4v-1.4h0.8V53.5z"/>
			<path fill="#082541" d="M425.4,53.7h-0.8v-2.9h0.8V52c1,0.7,1.4,0.8,2.2,0.8c1.3,0,2.2-0.7,2.2-1.7c0-0.9-0.6-1.6-2.4-2.5
				c-2.1-1.1-2.8-1.9-2.8-3.2c0-1.6,1.4-2.8,3.2-2.8c0.8,0,1.4,0.1,1.9,0.5v-0.6h0.8v2.8h-0.8V44c-0.8-0.6-1.2-0.7-1.9-0.7
				c-1.1,0-1.8,0.7-1.8,1.7c0,0.8,0.5,1.3,2.5,2.5c2,1.2,2.6,1.9,2.6,3.2c0,1.7-1.4,3-3.3,3c-1,0-1.7-0.2-2.5-0.7V53.7z"/>
		</g>
		<line fill="#082541" stroke="#231F20" stroke-width="0.5" stroke-miterlimit="10" x1="193.8" y1="18.3" x2="193.8" y2="54.5"/>
	</g>
	<path fill="#082541" d="M167.1,18.3c-7,9.9-10.4,21.3-11.9,28.2V19.9h4.1v-2h-13v2l4.1,0.1v31.8h-4.1v2.1h13v-2h-4.1v-0.2
		c0.6-3,2.6-9.2,4.8-11.9c2.9-3.6,13.8-7.7,19-14.6c-5.6,0.8-10.6,2-14.7,3.6c3.4-2.7,9.6-5.9,17.2-7.7c1.2-2.7,1.5-5.1,1.9-7.5
		c-4.5,0.8-8.5,1.9-11.9,3.1c2.7-2.2,7.2-4.6,12.8-6.4c0.4-1,0.8-2.1,1.5-3.2c1.7-3,7-7.1,7-7.1S178.1,2.6,167.1,18.3z"/>
</g>
</svg>
